Coordinates
version=1
nRows=8
nColumns=28
inDegrees=yes

Units are S.I. units (second, meters, Newtons, ...)
Angles are in degrees.

endheader
time	pelvis_tilt	pelvis_list	pelvis_rotation	pelvis_tx	pelvis_ty	pelvis_tz	hip_flexion_r	hip_adduction_r	hip_rotation_r	knee_angle_r	ankle_angle_r	subtalar_angle_r	mtp_angle_r	hip_flexion_l	hip_adduction_l	hip_rotation_l	knee_angle_l	socket_flexion	socket_adduction	socket_rotation	socket_tx	socket_ty	socket_tz	foot_flex	lumbar_extension	lumbar_bending	lumbar_rotation
      0.00000000	      2.06325833	     -2.60170378	     -1.71043288	     -0.88470217	      0.99800469	      0.25693394	    -25.73320554	      6.85811728	     -7.91693043	     -4.05460154	     14.18405204	     -0.86812697	      6.29245811	     29.03565116	      0.07314581	      8.41401926	    -14.28838364	     -5.04406160	      0.00000000	      0.00000000	      0.00000000	      0.00000000	      0.00000000	      1.42023344	    -14.51873010	      1.88772728	      3.41839191
      0.00416667	      1.99417323	     -2.62933873	     -1.62820299	     -0.87920941	      0.99741299	      0.25652766	    -25.84607790	      6.88035585	     -7.85572724	     -4.26494171	     14.12230711	     -0.87438522	      6.31265800	     28.89667036	      0.15346556	      8.41615330	    -14.32106778	     -5.07789456	      0.00000000	      0.00000000	      0.00000000	      0.00000000	      0.00000000	      1.35421634	    -14.36908744	      1.91096145	      3.41438721
      0.00833333	      1.92384314	     -2.66504661	     -1.61055692	     -0.87383875	      0.99690102	      0.25609915	    -25.74896494	      6.84093697	     -7.95410172	     -4.87759863	     13.77246769	     -1.05190245	      6.46896149	     28.76320429	      0.20638176	      8.48414813	    -14.38398501	     -5.17952591	      0.00000000	      0.00000000	      0.00000000	      0.00000000	      0.00000000	      0.90043076	    -14.30296231	      1.94518072	      3.34461748
      0.01250000	      1.85178096	     -2.68567526	     -1.53443175	     -0.86792304	      0.99632788	      0.25565696	    -25.85636427	      6.84919958	     -7.88677757	     -5.11818754	     13.71030923	     -1.06240952	      6.49363317	     28.60172164	      0.29582358	      8.50440240	    -14.42808633	     -5.21845288	      0.00000000	      0.00000000	      0.00000000	      0.00000000	      0.00000000	      0.84434681	    -14.13827288	      1.97507986	      3.34179210
      0.01666667	      1.77448741	     -2.69686591	     -1.52745739	     -0.86220632	      0.99583107	      0.25525162	    -25.73350195	      6.77800436	     -7.93682391	     -5.80560005	     13.39311849	     -1.23056073	      6.61597509	     28.45427462	      0.36783088	      8.63629254	    -14.50552969	     -5.32643084	      0.00000000	      0.00000000	      0.00000000	      0.00000000	      0.00000000	      0.42380068	    -14.07445162	      1.96664150	      3.28458152
      0.02083333	      1.70259088	     -2.71991184	     -1.43641366	     -0.85599267	      0.99528869	      0.25477187	    -25.83716653	      6.78873570	     -7.86847573	     -6.07113762	     13.32558394	     -1.24547714	      6.63773680	     28.27866466	      0.46571892	      8.64752849	    -14.56401889	     -5.35260830	      0.00000000	      0.00000000	      0.00000000	      0.00000000	      0.00000000	      0.36277893	    -13.89471290	      1.99925808	      3.28297167
      0.02500000	      1.22031799	     -2.82500346	     -1.21273050	     -0.84995415	      0.99384837	      0.25378493	    -25.17805831	      6.84390537	     -8.48936664	     -6.87405230	     11.16080626	     -1.91100852	     14.77230789	     28.88455504	      0.62189166	      9.01311995	    -15.54081613	     -5.95859546	      0.00000000	      0.00000000	      0.00000000	      0.00000000	      0.00000000	     -0.05419066	    -13.32499990	      2.21224217	      2.93016521
      0.02916667	      1.15285768	     -2.83102166	     -1.11749107	     -0.84354726	      0.99339519	      0.25330125	    -25.27915597	      6.84157949	     -8.37685412	     -7.16126321	     11.08808959	     -1.90908298	     14.76456719	     28.68563135	      0.73722352	      9.06372020	    -15.60409624	     -5.98248675	      0.00000000	      0.00000000	      0.00000000	      0.00000000	      0.00000000	     -0.12737687	    -13.14994261	      2.21619819	      2.93002418
